<svg xmlns="http://www.w3.org/2000/svg" width="20.086" height="21.764" viewBox="0 0 20.086 21.764"><defs><style>.a{fill:none;stroke:#575757;stroke-width:1.5px;}.b{fill:#e10518;}</style></defs><g transform="translate(13365.255 19781.305)"><path class="a" d="M362.853,2285.992a.727.727,0,0,0-.726-.7c-5.454,0-8.064-2.121-8.087-2.139a.729.729,0,0,0-.936,0c-.026.02-2.636,2.141-8.09,2.141a.725.725,0,0,0-.725.7c-.02.661-.393,13.825,9.042,17.155a.744.744,0,0,0,.241.041.752.752,0,0,0,.241-.041c9.435-3.33,9.06-16.494,9.041-17.155" transform="translate(-13708.782 -22063.48)"/><path class="b" d="M355.975,2284.877a.457.457,0,0,0-.457-.443,8.389,8.389,0,0,1-5.092-1.347.459.459,0,0,0-.59,0,8.4,8.4,0,0,1-5.094,1.348.457.457,0,0,0-.457.443c-.012.416-.248,8.7,5.693,10.8a.48.48,0,0,0,.152.026.485.485,0,0,0,.152-.026c5.941-2.1,5.7-10.386,5.692-10.8" transform="translate(-13705.247 -22059.85)"/></g></svg>