<svg xmlns="http://www.w3.org/2000/svg" width="21.75" height="26.146" viewBox="0 0 21.75 26.146"><defs><style>.a{fill:#575757;}.b{fill:#e10518;}</style></defs><g transform="translate(-322.1 -3471.15)"><path class="a" d="M335.05,3484.487v7.985a.706.706,0,0,1-.706.705h-10.36a.707.707,0,0,1-.708-.705v-19.436a.708.708,0,0,1,.708-.707h10.36a.71.71,0,0,1,.69.56l.979-.725a1.882,1.882,0,0,0-1.669-1.012h-10.36a1.884,1.884,0,0,0-1.885,1.884v22.38a1.883,1.883,0,0,0,1.885,1.882h10.36a1.882,1.882,0,0,0,1.883-1.882v-11.542Zm-5.888,11.978a1.226,1.226,0,1,1,1.227-1.226,1.226,1.226,0,0,1-1.227,1.226"/><path class="b" d="M345.847,3482.1l-.244-.676-2.369-6.559a.325.325,0,0,0-.161-.181,2.57,2.57,0,0,0-1.131-.254c-1.876-.021-4.48,1.528-7,3.027a38.3,38.3,0,0,1-3.963,2.166,38.142,38.142,0,0,0,3.822-2.466c2.4-1.681,4.884-3.419,6.755-3.534a2.833,2.833,0,0,1,.384,0l-.17-.331a.309.309,0,0,0-.176-.153,2.4,2.4,0,0,0-1.1-.095c-1.773.225-4.033,2.053-6.218,3.823a28.055,28.055,0,0,1-4.1,2.96,27.852,27.852,0,0,0,3.916-3.219c2.073-1.9,4.217-3.87,5.971-4.207a2.972,2.972,0,0,1,.321-.045l-.272-.415a.321.321,0,0,0-.191-.131,2.29,2.29,0,0,0-1.072.045,7.214,7.214,0,0,0-2.871,1.887v0a1.6,1.6,0,0,0-1.272-.378l-8.3-.03a.418.418,0,0,0-.419.417v18.79a.42.42,0,0,0,.419.42H336.1a.419.419,0,0,0,.416-.42v-6.628c.357-.209,1.013-.444,1.379-.661,2.438-1.454,4.961-2.954,6.651-2.935a1.91,1.91,0,0,1,.846.183.31.31,0,0,0,.142.036.329.329,0,0,0,.313-.44m-6.035-1.146a3.634,3.634,0,0,1-3.077,3.438c-1.532.063-2.634-1.372-2.464-3.208a3.632,3.632,0,0,1,3.079-3.437c1.528-.063,2.632,1.372,2.463,3.207" transform="translate(-2.015 -0.317)"/><path class="b" d="M348.974,3487.844c-.209-.424-.551-.419-.969-.251l-.408.168c-.169.068-.278.086-.331-.021s.027-.247.144-.337c.341-.266.492.031.723-.147a.438.438,0,0,0,.147-.541c-.143-.289-.466-.23-.785-.062l-.224-.454a.051.051,0,0,0-.082-.019l-.452.351a.079.079,0,0,0-.023.1l.215.435a1.087,1.087,0,0,0-.268,1.281.611.611,0,0,0,.871.272l.534-.207c.145-.056.227-.064.278.035.074.149-.026.3-.166.41-.339.263-.547-.071-.792.119a.442.442,0,0,0-.133.544c.091.184.386.35.9.074l.221.448a.051.051,0,0,0,.081.018l.453-.35a.084.084,0,0,0,.024-.1l-.219-.444a1.157,1.157,0,0,0,.261-1.32" transform="translate(-12.681 -7.785)"/></g></svg>