<svg xmlns="http://www.w3.org/2000/svg" viewBox="0 0 42.3 42.3"><defs><style>.a{fill:#575757;fill-rule:evenodd;}</style></defs><path class="a" d="M21.184,0A21.15,21.15,0,1,0,42.3,21.184,21.143,21.143,0,0,0,21.184,0m8.648,27.016a2.09,2.09,0,0,1,.6,1.408,2.017,2.017,0,0,1-2.011,2.011,1.826,1.826,0,0,1-1.408-.6l-5.9-5.9-5.9,5.9a2.09,2.09,0,0,1-1.408.6A2.017,2.017,0,0,1,11.8,28.423a1.826,1.826,0,0,1,.6-1.408l5.9-5.9-5.9-5.9a2.09,2.09,0,0,1-.6-1.408A2.017,2.017,0,0,1,13.81,11.8a1.826,1.826,0,0,1,1.408.6l5.9,5.9,5.9-5.9a2.09,2.09,0,0,1,1.408-.6,2.017,2.017,0,0,1,2.011,2.011,1.826,1.826,0,0,1-.6,1.408l-5.9,5.9Z"/></svg>