<svg xmlns="http://www.w3.org/2000/svg" width="11.591" height="11.591" viewBox="0 0 11.591 11.591"><defs><style>.a{fill:#575757;fill-rule:evenodd;opacity:0.404;}</style></defs><path class="a" d="M11.286,1.769,7.26,5.8l4.026,4.026a1.01,1.01,0,0,1,.305.732,1.069,1.069,0,0,1-1.037,1.037,1.01,1.01,0,0,1-.732-.305L5.8,7.26,1.769,11.286a1.126,1.126,0,0,1-.732.305A1.028,1.028,0,0,1,0,10.554a1.01,1.01,0,0,1,.305-.732L4.331,5.8.305,1.769A1.126,1.126,0,0,1,0,1.037.993.993,0,0,1,1.037,0a1.01,1.01,0,0,1,.732.305L5.8,4.331,9.822.305A1.01,1.01,0,0,1,10.554,0a1.028,1.028,0,0,1,1.037,1.037,1.126,1.126,0,0,1-.305.732"/></svg>