<svg xmlns="http://www.w3.org/2000/svg" width="65.006" height="59.98" viewBox="0 0 65.006 59.98"><defs><style>.a{opacity:0.05;}</style></defs><g class="a"><path d="M126.735,283.4a1.5,1.5,0,1,0-1.486,1.335A1.417,1.417,0,0,0,126.735,283.4Zm0,0" transform="translate(-106.415 -243.657)"/><path d="M125.248,212.527a1.343,1.343,0,1,0,1.487,1.335A1.418,1.418,0,0,0,125.248,212.527Zm0,0" transform="translate(-106.415 -183.603)"/><path d="M126.735,144.327a1.5,1.5,0,1,0-1.486,1.335A1.417,1.417,0,0,0,126.735,144.327Zm0,0" transform="translate(-106.415 -123.549)"/><path d="M280.446.395a13.633,13.633,0,0,0-13.817,13.442,13.822,13.822,0,0,0,27.634,0A13.649,13.649,0,0,0,280.446.395Zm-.064,12.48a4.561,4.561,0,0,1,4.586,4.054,4.5,4.5,0,0,1-3.71,4.828v1.257a.981.981,0,0,1-1.962,0v-1.3a4.514,4.514,0,0,1-3.521-4.355.982.982,0,0,1,1.962,0,2.646,2.646,0,1,0,2.645-2.574,4.564,4.564,0,0,1-4.574-3.949A4.492,4.492,0,0,1,279.3,5.947v-1.2a.981.981,0,0,1,1.962,0V5.9a4.523,4.523,0,0,1,3.731,4.4.982.982,0,0,1-1.962,0,2.61,2.61,0,0,0-2.6-2.571.976.976,0,0,1-.148.012c-.031,0-.061,0-.091,0a2.57,2.57,0,0,0,.2,5.137Zm0,0" transform="translate(-229.258 -0.395)"/><path d="M35.353,374.075a8.308,8.308,0,0,1-2.555-5.966v-3.824H0v3.84a6.647,6.647,0,0,0,6.727,6.523H36.017A4.4,4.4,0,0,1,35.353,374.075Zm0,0" transform="translate(0 -314.668)"/><path d="M93.632,86.739H81.749a.955.955,0,1,1,0-1.909H92.557a14.775,14.775,0,0,1-1.43-6.379,15.435,15.435,0,0,1,.338-3.166H65.06l-.26,37.5H89.548a.91.91,0,0,1,.669.254.858.858,0,0,1,.262.65v4.83a6.664,6.664,0,0,0,6.742,6.538h.022a6.615,6.615,0,0,0,6.692-6.523V93.593A15.571,15.571,0,0,1,93.632,86.739ZM74.551,108.06A3.251,3.251,0,1,1,78,104.815,3.355,3.355,0,0,1,74.551,108.06Zm0-9.482A3.25,3.25,0,1,1,78,95.334,3.355,3.355,0,0,1,74.551,98.578Zm0-9.481A3.251,3.251,0,1,1,78,85.852,3.355,3.355,0,0,1,74.551,89.1ZM96.7,105.828H81.749a.955.955,0,1,1,0-1.909H96.7a.955.955,0,1,1,0,1.909Zm.981-10.5a.968.968,0,0,1-.981.954H81.749a.955.955,0,1,1,0-1.909H96.7A.968.968,0,0,1,97.679,95.329Zm0,0" transform="translate(-55.718 -65.074)"/></g></svg>