<svg xmlns="http://www.w3.org/2000/svg" width="16.559" height="28.246" viewBox="0 0 16.559 28.246"><defs><style>.a{fill:#575757;}.a,.b{fill-rule:evenodd;}.b{fill:#dd141d;}</style></defs><g transform="translate(-178 -189.001)"><path class="a" d="M72.686,581.491H59.049a1.461,1.461,0,0,1-1.461-1.46V554.706a1.461,1.461,0,0,1,1.461-1.461H72.686a1.461,1.461,0,0,1,1.46,1.461v25.325a1.46,1.46,0,0,1-1.46,1.46m-6.818-1.46a.974.974,0,1,0-.974-.974.974.974,0,0,0,.974.974m6.818-23.863H59.049v20.454H72.686Z" transform="translate(120.412 -364.244)"/><path class="b" d="M57.532,1056.973h0l-1.033,2.3a.345.345,0,0,1-.291.2l-2.976.2.172.491h3.24a.689.689,0,1,1-.689.689H52.741a.689.689,0,1,1-.689-.689h.622l-1.326-3.789h-.789a.344.344,0,0,1,0-.689h1.033a.343.343,0,0,1,.324.231h0l.2.573h5.1a.344.344,0,0,1,.344.344.34.34,0,0,1-.031.141m-5.173.2L53,1059l2.96-.2.73-1.622Z" transform="translate(132.312 -855.566)"/></g></svg>