<svg xmlns="http://www.w3.org/2000/svg" width="21.867" height="22.186" viewBox="0 0 21.867 22.186"><defs><style>.a{fill:#575757;}.b{fill:#e10518;}</style></defs><g transform="translate(-927.217 -3600.561)"><path class="a" d="M954.115,3606.073a1.305,1.305,0,0,0-1.2-1.386h-1.179l-.48-2.686a1.81,1.81,0,0,0-.8-1.25,1.247,1.247,0,0,0-1.034-.135l-12.921,4a1.511,1.511,0,0,0-.842.7l.01.006a1.528,1.528,0,0,0-.191.745v6.509a5.94,5.94,0,0,1,1.649-.236,5.745,5.745,0,0,1,5.81,5.664,5.551,5.551,0,0,1-.2,1.48h10.175a1.306,1.306,0,0,0,1.2-1.387m-15.171-13.416,10.713-3.321a.465.465,0,0,1,.394.054,1.054,1.054,0,0,1,.433.72l.455,2.546Z" transform="translate(-5.03)"/><path class="b" d="M932.1,3633.052a4.739,4.739,0,1,0,0,9.474,4.905,4.905,0,0,0,4.571-3.066,4.577,4.577,0,0,0,.313-1.671,4.819,4.819,0,0,0-4.884-4.738m1.88,5.2h-1.418v1.419a.463.463,0,0,1-.926,0v-1.419h-1.419a.463.463,0,0,1,0-.927h1.419v-1.419a.463.463,0,0,1,.926,0v1.419h1.418a.463.463,0,1,1,0,.927" transform="translate(0 -19.781)"/></g></svg>