<svg xmlns="http://www.w3.org/2000/svg" width="25.195" height="19.103" viewBox="0 0 25.195 19.103"><defs><style>.a{fill:#575757;fill-rule:evenodd;}.b{fill:#e10518;}</style></defs><g transform="translate(-508.256 -3474.888)"><path class="a" d="M515.369,3475.934a1.043,1.043,0,0,1,1.041-1.046h20.134a1.043,1.043,0,0,1,1.04,1.046v3.137H515.369Z" transform="translate(-4.134)"/><path class="b" d="M516.885,3496.435c-4.669-.424-5.568,2.68-5.568,2.68l-2.519-4.75a2.25,2.25,0,0,0-.543.82l3.058,5.684a5.268,5.268,0,0,1,5.8-3.541c5.186.47,6.452-2.717,6.452-2.717l-.4-.7a6.765,6.765,0,0,1-6.27,2.526m6.765-5.153c-.594-.934-1.9-3.3-2.491-4.334-.172-.271-.418-.323-.706,0-.846.958-2.937,2.9-5.733,2.545a6.268,6.268,0,0,0-6.267,2.86l2.794,5.235s.839-2.207,5.247-1.85a7.651,7.651,0,0,0,7.079-3.5.85.85,0,0,0,.076-.956m-5.372,3.181-.526.342-.333-.52a2.541,2.541,0,0,1-1.06.364l-.243-.738a2.258,2.258,0,0,0,1.045-.341c.306-.2.441-.463.307-.672s-.393-.224-.876-.1c-.7.178-1.264.162-1.6-.364a1.19,1.19,0,0,1,.294-1.555l-.329-.516.528-.342.3.478a2.248,2.248,0,0,1,.9-.332l.23.719a1.95,1.95,0,0,0-.895.313c-.349.226-.36.455-.264.609.11.174.375.17.938.042.792-.19,1.234-.056,1.548.437a1.231,1.231,0,0,1-.32,1.619Z" transform="translate(0 -6.878)"/><path class="a" d="M563.151,3497.751a.1.1,0,0,1,.1.1v.282h1.141v-.442h-1.253v.041a.016.016,0,0,0,.015.017" transform="translate(-31.892 -13.252)"/><path class="a" d="M559.754,3499.379a.1.1,0,0,1-.1-.1v-.3h-1.141v.443h1.253v-.023a.017.017,0,0,0-.015-.018" transform="translate(-29.207 -13.998)"/><path class="a" d="M561.692,3497.631v.067a.159.159,0,0,1-.112.152v.612a.16.16,0,0,1,.112.153v.049h.4v-.049a.161.161,0,0,1,.113-.153v-.612a.16.16,0,0,1-.113-.152v-.067Z" transform="translate(-30.987 -13.216)"/><path class="a" d="M559.773,3496.7a.1.1,0,0,1,.1-.072h.2v-.475H558.98a.467.467,0,0,0-.465.466v.08Z" transform="translate(-29.206 -12.36)"/><path class="a" d="M559.768,3497.734v-.041h-1.253v.442h1.141v-.283a.1.1,0,0,1,.1-.1.017.017,0,0,0,.015-.017" transform="translate(-29.206 -13.252)"/><path class="a" d="M563.136,3499.4v.023h1.253v-.443h-1.141v.3a.1.1,0,0,1-.1.1.017.017,0,0,0-.015.018" transform="translate(-31.892 -13.998)"/><path class="a" d="M560.069,3500.334h-.2a.1.1,0,0,1-.1-.072h-1.258v.08a.467.467,0,0,0,.465.467h1.089Z" transform="translate(-29.206 -14.745)"/><path class="a" d="M563.5,3496.158h-1.089v.475h.2a.1.1,0,0,1,.1.073h1.258v-.081a.466.466,0,0,0-.465-.466" transform="translate(-31.473 -12.36)"/><path class="a" d="M562.713,3500.263a.1.1,0,0,1-.1.072h-.2v.475h1.089a.466.466,0,0,0,.465-.467v-.08Z" transform="translate(-31.473 -14.745)"/><path class="a" d="M517.9,3490.614a8.067,8.067,0,0,1,1.031.067,4.782,4.782,0,0,0,.6.038,5.329,5.329,0,0,0,2.8-.858h-6.959v1.214a6.981,6.981,0,0,1,2.535-.46" transform="translate(-4.133 -8.701)"/><path class="a" d="M541.576,3489.86c.595,1.057,1.3,2.3,1.681,2.9l.034.059a1.5,1.5,0,0,1-.122,1.6,9.361,9.361,0,0,1-.588.781.651.651,0,0,1,.2.209l.4.7a.643.643,0,0,1,.039.554,4.982,4.982,0,0,1-2.154,2.251h10.41a1.042,1.042,0,0,0,1.04-1.046v-8.014Zm10.131,4.438a.608.608,0,0,1-.608.608h-2.257a.608.608,0,0,1-.607-.608v-1.333a.608.608,0,0,1,.607-.608H551.1a.61.61,0,0,1,.608.608Z" transform="translate(-19.067 -8.701)"/></g></svg>