<svg xmlns="http://www.w3.org/2000/svg" viewBox="0 0 15 15"><defs><style>.a{fill:#fff;}.b{fill:#939393;}</style></defs><g transform="translate(-1062.147 -733.148)"><circle class="a" cx="6.46" cy="6.46" r="6.46" transform="translate(1063.25 734.25)"/><g transform="translate(1062.147 733.148)"><path class="b" d="M13.99,3.74a7.522,7.522,0,0,0-2.73-2.73A7.315,7.315,0,0,0,7.5,0,7.315,7.315,0,0,0,3.74,1.01,7.3,7.3,0,0,0,1.01,3.74,7.315,7.315,0,0,0,0,7.5a7.377,7.377,0,0,0,1.01,3.77A7.522,7.522,0,0,0,3.74,14,7.4,7.4,0,0,0,7.5,15a7.315,7.315,0,0,0,3.76-1.01,7.522,7.522,0,0,0,2.73-2.73A7.315,7.315,0,0,0,15,7.5,7.315,7.315,0,0,0,13.99,3.74ZM6.39,2.47a.267.267,0,0,1,.26-.27H8.33a.261.261,0,0,1,.28.25v1.4a.276.276,0,0,1-.26.28H6.67a.274.274,0,0,1-.28-.25V2.47Zm3.32,9.12a.267.267,0,0,1-.25.28H5.57a.267.267,0,0,1-.28-.25v-1.4a.271.271,0,0,1,.25-.29h.85V7.17H5.57a.267.267,0,0,1-.28-.25V5.51a.253.253,0,0,1,.25-.27H8.32a.264.264,0,0,1,.29.25V9.93h.83a.267.267,0,0,1,.28.25v.02l-.01,1.39Z"/></g></g></svg>