<svg xmlns="http://www.w3.org/2000/svg" width="20.008" height="16.006" viewBox="0 0 20.008 16.006"><defs><style>.a{fill:#939393;}</style></defs><g transform="translate(0 -10)"><g transform="translate(0 10)"><path class="a" d="M10,16a3,3,0,1,0,3,3A3,3,0,0,0,10,16Zm8-3h-2.4a.891.891,0,0,1-.79-.569L14.2,10.569a.892.892,0,0,0-.79-.569H6.6a.891.891,0,0,0-.79.569l-.621,1.863A.892.892,0,0,1,4.4,13H2a2.007,2.007,0,0,0-2,2v9a2.007,2.007,0,0,0,2,2H18.007a2.007,2.007,0,0,0,2-2V15A2.007,2.007,0,0,0,18.007,13Zm-8,11a5,5,0,1,1,5-5A5,5,0,0,1,10,24.005Zm7.3-7.6a.7.7,0,1,1,.7-.7A.7.7,0,0,1,17.307,16.4Z" transform="translate(0 -10)"/></g></g></svg>