<svg xmlns="http://www.w3.org/2000/svg" viewBox="0 0 23.527 23.527"><defs><style>.a{fill:#dd141d;}</style></defs><path class="a" d="M11.764,0A11.764,11.764,0,1,0,23.527,11.764,11.786,11.786,0,0,0,11.764,0m3.471,16.623a1.149,1.149,0,0,1,.694,1.311,1.235,1.235,0,0,1-1.2,1,1.548,1.548,0,0,1-.579-.116c-.077-.039-7.984-3.741-7.907-7.058-.077-3.317,7.829-7.02,7.907-7.058a1.548,1.548,0,0,1,.579-.116,1.235,1.235,0,0,1,1.2,1A1.128,1.128,0,0,1,15.235,6.9c-2.353,1.08-6.6,3.587-6.6,4.86.039,1.234,4.32,3.818,6.6,4.86"/></svg>