<svg xmlns="http://www.w3.org/2000/svg" viewBox="0 0 15.437 15.435"><defs><style>.a{fill:#939393;}</style></defs><g transform="translate(0 -0.028)"><path class="a" d="M14.438,1.027a3.4,3.4,0,0,0-4.819,0L.784,9.859a.442.442,0,0,0-.125.253L0,14.96a.441.441,0,0,0,.125.372.449.449,0,0,0,.312.132.357.357,0,0,0,.059,0l2.921-.395a.445.445,0,0,0-.118-.882L.962,14.5l.457-3.381,3.559,3.559a.449.449,0,0,0,.312.132.436.436,0,0,0,.312-.132l8.835-8.831a3.4,3.4,0,0,0,0-4.819ZM9.79,2.113,11.273,3.6,3.212,11.658,1.728,10.174Zm-4.5,11.624L3.843,12.286,11.9,4.224l1.451,1.451Zm8.68-8.7L10.425,1.491A2.521,2.521,0,0,1,13.974,5.04Z" transform="translate(0)"/></g></svg>